<mxfile host="app.diagrams.net" agent="Mozilla/5.0 (Windows NT 10.0; Win64; x64) AppleWebKit/537.36 (KHTML, like Gecko) Chrome/136.0.0.0 Safari/537.36 Edg/136.0.0.0" version="27.0.3">
  <diagram name="Page-1" id="W5SR4ve7DK1xI4KTCsXA">
    <mxGraphModel dx="2938" dy="1112" grid="1" gridSize="10" guides="1" tooltips="1" connect="1" arrows="1" fold="1" page="1" pageScale="1" pageWidth="850" pageHeight="1100" math="0" shadow="0">
      <root>
        <mxCell id="0" />
        <mxCell id="1" parent="0" />
        <mxCell id="kY7sJMGPfd-3TEwiI5uV-1" value="A" style="ellipse;whiteSpace=wrap;html=1;aspect=fixed;fillColor=#d5e8d4;strokeColor=#82b366;strokeWidth=2;" vertex="1" parent="1">
          <mxGeometry x="120" y="40" width="40" height="40" as="geometry" />
        </mxCell>
        <mxCell id="kY7sJMGPfd-3TEwiI5uV-2" value="B" style="ellipse;whiteSpace=wrap;html=1;aspect=fixed;fillColor=#f5f5f5;fontColor=#333333;strokeColor=#666666;strokeWidth=2;" vertex="1" parent="1">
          <mxGeometry x="40" y="120" width="40" height="40" as="geometry" />
        </mxCell>
        <mxCell id="kY7sJMGPfd-3TEwiI5uV-3" value="C" style="ellipse;whiteSpace=wrap;html=1;aspect=fixed;fillColor=#d5e8d4;strokeColor=#82b366;strokeWidth=2;" vertex="1" parent="1">
          <mxGeometry x="120" y="200" width="40" height="40" as="geometry" />
        </mxCell>
        <mxCell id="kY7sJMGPfd-3TEwiI5uV-4" value="" style="endArrow=classic;html=1;rounded=0;strokeWidth=2;" edge="1" parent="1" source="kY7sJMGPfd-3TEwiI5uV-1" target="kY7sJMGPfd-3TEwiI5uV-2">
          <mxGeometry width="50" height="50" relative="1" as="geometry">
            <mxPoint x="-10" y="60" as="sourcePoint" />
            <mxPoint x="40" y="10" as="targetPoint" />
          </mxGeometry>
        </mxCell>
        <mxCell id="kY7sJMGPfd-3TEwiI5uV-5" value="0.5" style="edgeLabel;html=1;align=center;verticalAlign=middle;resizable=0;points=[];" vertex="1" connectable="0" parent="kY7sJMGPfd-3TEwiI5uV-4">
          <mxGeometry x="-0.1818" y="4" relative="1" as="geometry">
            <mxPoint x="-8" y="5" as="offset" />
          </mxGeometry>
        </mxCell>
        <mxCell id="kY7sJMGPfd-3TEwiI5uV-6" value="0.3" style="endArrow=classic;html=1;rounded=0;strokeWidth=2;" edge="1" parent="1" source="kY7sJMGPfd-3TEwiI5uV-1" target="kY7sJMGPfd-3TEwiI5uV-3">
          <mxGeometry width="50" height="50" relative="1" as="geometry">
            <mxPoint x="136" y="84" as="sourcePoint" />
            <mxPoint x="208.9059960754953" y="163.35899411324306" as="targetPoint" />
            <mxPoint as="offset" />
          </mxGeometry>
        </mxCell>
        <mxCell id="kY7sJMGPfd-3TEwiI5uV-7" value="0.4" style="endArrow=classic;html=1;rounded=0;strokeWidth=2;" edge="1" parent="1" source="kY7sJMGPfd-3TEwiI5uV-2" target="kY7sJMGPfd-3TEwiI5uV-3">
          <mxGeometry width="50" height="50" relative="1" as="geometry">
            <mxPoint x="136" y="84" as="sourcePoint" />
            <mxPoint x="110" y="130" as="targetPoint" />
          </mxGeometry>
        </mxCell>
        <mxCell id="kY7sJMGPfd-3TEwiI5uV-8" value="" style="curved=1;endArrow=classic;html=1;rounded=0;dashed=1;dashPattern=8 8;strokeWidth=1;" edge="1" parent="1" source="kY7sJMGPfd-3TEwiI5uV-1" target="kY7sJMGPfd-3TEwiI5uV-3">
          <mxGeometry width="50" height="50" relative="1" as="geometry">
            <mxPoint x="190" y="520" as="sourcePoint" />
            <mxPoint x="13.675444679663087" y="281.0263340389896" as="targetPoint" />
            <Array as="points">
              <mxPoint x="280" y="140" />
            </Array>
          </mxGeometry>
        </mxCell>
        <mxCell id="kY7sJMGPfd-3TEwiI5uV-9" value="(0.5 * 0.4)&lt;div&gt;+&lt;/div&gt;&lt;div&gt;0.3&lt;/div&gt;&lt;div&gt;=&lt;/div&gt;&lt;div&gt;0.5&lt;/div&gt;" style="edgeLabel;html=1;align=center;verticalAlign=middle;resizable=0;points=[];" vertex="1" connectable="0" parent="kY7sJMGPfd-3TEwiI5uV-8">
          <mxGeometry x="0.1807" y="3" relative="1" as="geometry">
            <mxPoint x="-9" y="-15" as="offset" />
          </mxGeometry>
        </mxCell>
      </root>
    </mxGraphModel>
  </diagram>
</mxfile>
